<mxfile modified="2022-10-30T02:04:04.627Z" host="Electron" agent="5.0 (Windows NT 10.0; Win64; x64) AppleWebKit/537.36 (KHTML, like Gecko) draw.io/20.3.0 Chrome/104.0.5112.114 Electron/20.1.3 Safari/537.36" etag="bJv7Ej07YZv1yNcvTACc" compressed="false" version="20.3.0" type="device">
  <diagram id="kvb9as4zQGwwhHGjdHcz" name="User Context/Disability User Context">
    <mxGraphModel dx="782" dy="549" grid="1" gridSize="10" guides="1" tooltips="1" connect="1" arrows="1" fold="1" page="1" pageScale="1" pageWidth="850" pageHeight="1100" math="0" shadow="0">
      <root>
        <mxCell id="27UipYXswoLUbLAqlHNw-0" />
        <mxCell id="27UipYXswoLUbLAqlHNw-1" value="Diagram" parent="27UipYXswoLUbLAqlHNw-0" />
        <UserObject label="Gifted&lt;br&gt;(2%)" link="https://edition.cnn.com/2008/HEALTH/family/08/27/gifted.kids/index.html" id="27UipYXswoLUbLAqlHNw-2">
          <mxCell style="rounded=0;whiteSpace=wrap;html=1;strokeColor=#000000;fillColor=none;fontFamily=Helvetica;fontSize=12;fontColor=#000000;align=left;" parent="27UipYXswoLUbLAqlHNw-1" vertex="1">
            <mxGeometry x="120" y="220" width="80" height="40" as="geometry" />
          </mxCell>
        </UserObject>
        <mxCell id="27UipYXswoLUbLAqlHNw-4" value="Legally blind&lt;br&gt;(2%)" style="rounded=0;whiteSpace=wrap;html=1;strokeColor=#000000;fillColor=none;fontFamily=Helvetica;fontSize=12;fontColor=#000000;align=left;" parent="27UipYXswoLUbLAqlHNw-1" vertex="1">
          <mxGeometry x="300" y="270" width="80" height="40" as="geometry" />
        </mxCell>
        <UserObject label="Hearing Challendged &lt;font style=&quot;font-size: 10px&quot;&gt;(2 rising to 8.5%)&lt;/font&gt;" link="https://www.nidcd.nih.gov/health/statistics/quick-statistics-hearing" id="27UipYXswoLUbLAqlHNw-5">
          <mxCell style="rounded=0;whiteSpace=wrap;html=1;strokeColor=#000000;fillColor=none;fontFamily=Helvetica;fontSize=12;fontColor=#000000;align=left;" parent="27UipYXswoLUbLAqlHNw-1" vertex="1">
            <mxGeometry x="390" y="220" width="80" height="40" as="geometry" />
          </mxCell>
        </UserObject>
        <UserObject label="Physically Challenged (3-8%)" link="https://www.who.int/disabilities/world_report/2011/report/en/" id="27UipYXswoLUbLAqlHNw-6">
          <mxCell style="rounded=0;whiteSpace=wrap;html=1;strokeColor=#000000;fillColor=none;fontFamily=Helvetica;fontSize=12;fontColor=#000000;align=left;" parent="27UipYXswoLUbLAqlHNw-1" vertex="1">
            <mxGeometry x="480" y="220" width="80" height="40" as="geometry" />
          </mxCell>
        </UserObject>
        <mxCell id="27UipYXswoLUbLAqlHNw-15" value="Colour&lt;br&gt;Challenged&lt;br&gt;(8% of males)" style="rounded=0;whiteSpace=wrap;html=1;strokeColor=#000000;fillColor=none;fontFamily=Helvetica;fontSize=12;fontColor=#000000;align=left;" parent="27UipYXswoLUbLAqlHNw-1" vertex="1">
          <mxGeometry x="210" y="220" width="80" height="40" as="geometry" />
        </mxCell>
        <UserObject label="Physically Challenged&lt;br&gt;(8%)" link="https://www.cdc.gov/nchs/fastats/disability.htm" id="27UipYXswoLUbLAqlHNw-22">
          <mxCell style="rounded=0;whiteSpace=wrap;html=1;strokeColor=#000000;fillColor=none;fontFamily=Helvetica;fontSize=12;fontColor=#000000;align=left;" parent="27UipYXswoLUbLAqlHNw-1" vertex="1">
            <mxGeometry x="480" y="270" width="80" height="40" as="geometry" />
          </mxCell>
        </UserObject>
        <mxCell id="1MC8SJolWBBQI1kP2owI-0" value="Organisations that do not make concerted efforts to provide Accessibility to their services by all employees, partners and consumers are unnecessarily exposing themselves to significant internal and external risks of litigation, reparation and reputational damage." style="shape=note;whiteSpace=wrap;html=1;size=14;verticalAlign=top;align=left;spacingTop=-6;rounded=0;strokeColor=#000000;fillColor=none;fontFamily=Helvetica;fontSize=12;fontColor=#000000;" parent="27UipYXswoLUbLAqlHNw-1" vertex="1">
          <mxGeometry x="120" y="160" width="530" height="50" as="geometry" />
        </mxCell>
        <UserObject label="&lt;p style=&quot;line-height: 90% ; font-size: 11px&quot;&gt;&lt;font style=&quot;font-size: 11px&quot;&gt;Health&lt;br&gt;&lt;/font&gt;&lt;span&gt;Challenged&lt;/span&gt;(3%)&lt;span&gt;&lt;br&gt;(Migraines, etc)&lt;/span&gt;&lt;/p&gt;" link="https://www.who.int/disabilities/world_report/2011/report/en/" id="oB89nRqd097gov6ZlNrv-1">
          <mxCell style="rounded=0;whiteSpace=wrap;html=1;strokeColor=#000000;fillColor=none;fontFamily=Helvetica;fontSize=12;fontColor=#000000;align=left;" parent="27UipYXswoLUbLAqlHNw-1" vertex="1">
            <mxGeometry x="570" y="220" width="80" height="40" as="geometry" />
          </mxCell>
        </UserObject>
        <UserObject label="Emotionally Challenged&lt;br&gt;(3%)" link="https://en.wikipedia.org/wiki/Intellectual_disability" id="oB89nRqd097gov6ZlNrv-2">
          <mxCell style="rounded=0;whiteSpace=wrap;html=1;strokeColor=#000000;fillColor=none;fontFamily=Helvetica;fontSize=12;fontColor=#000000;align=left;" parent="27UipYXswoLUbLAqlHNw-1" vertex="1">
            <mxGeometry x="570" y="270" width="80" height="40" as="geometry" />
          </mxCell>
        </UserObject>
        <UserObject label="Challenged in 1 in 6 abilities&lt;br&gt;(8+%)" link="https://www.cdc.gov/nchs/fastats/disability.htm" id="oB89nRqd097gov6ZlNrv-3">
          <mxCell style="rounded=0;whiteSpace=wrap;html=1;strokeColor=#000000;fillColor=none;fontFamily=Helvetica;fontSize=12;fontColor=#000000;align=left;" parent="27UipYXswoLUbLAqlHNw-1" vertex="1">
            <mxGeometry x="570" y="320" width="80" height="40" as="geometry" />
          </mxCell>
        </UserObject>
        <UserObject label="Short sighted (33%)" link="https://edition.cnn.com/2008/HEALTH/family/08/27/gifted.kids/index.html" id="L4pXcnKYMLliXj6nnOGr-0">
          <mxCell style="rounded=0;whiteSpace=wrap;html=1;strokeColor=#000000;fillColor=none;fontFamily=Helvetica;fontSize=12;fontColor=#000000;align=left;" parent="27UipYXswoLUbLAqlHNw-1" vertex="1">
            <mxGeometry x="300" y="220" width="80" height="40" as="geometry" />
          </mxCell>
        </UserObject>
        <mxCell id="RCU7JjkLIbeMwRz3uz-p-3" value="Title/Diagram" parent="27UipYXswoLUbLAqlHNw-0" />
        <mxCell id="jTkhYlYje8fbVmaOVX4h-0" value="&lt;font style=&quot;font-size: 12px ; font-weight: normal&quot;&gt;&lt;i&gt;Diagram: &lt;/i&gt;&lt;i&gt;User Context - Equal Opportunity Environment Users&lt;/i&gt;&lt;/font&gt;" style="text;strokeColor=none;fillColor=none;html=1;fontSize=10;fontStyle=1;verticalAlign=middle;align=left;shadow=0;glass=0;comic=0;opacity=30;fontColor=#808080;" parent="RCU7JjkLIbeMwRz3uz-p-3" vertex="1">
          <mxGeometry x="120" y="380" width="520" height="20" as="geometry" />
        </mxCell>
        <mxCell id="oB89nRqd097gov6ZlNrv-0" value="Overlay" parent="27UipYXswoLUbLAqlHNw-0" />
      </root>
    </mxGraphModel>
  </diagram>
</mxfile>
